<svg xmlns="http://www.w3.org/2000/svg" viewBox="0 0 486.64 479.53"><defs><style>.cls-1{fill:#b5a392;}.cls-2{fill:#2d2d30;opacity:0.15;}.cls-3{fill:#111;}.cls-4{fill:#f6eee3;}.cls-5{fill:#eb8d2e;}.cls-6{fill:#5c69ab;}.cls-7{fill:#ffa485;}.cls-10,.cls-13,.cls-8{fill:#e06a4b;}.cls-20,.cls-9{fill:#fff;}.cls-10,.cls-20{opacity:0.46;}.cls-11{fill:#231f20;}.cls-12{fill:none;}.cls-13{opacity:0.36;}.cls-14{fill:#f2f1ec;}.cls-15{fill:#c0644b;}.cls-16{fill:#f16f5f;}.cls-17{fill:#1b1f38;opacity:0.69;}.cls-18{fill:#bcc5f6;}.cls-19{fill:#5f73d3;}</style></defs><g id="Layer_2" data-name="Layer 2"><g id="OBJECTS"><path class="cls-1" d="M204.92,165c-.5-19.07-3.24-108.46-3.28-108.46C95.08,60.43,14.2,79.63,14.2,102.73c0,18.09,50.42,82.89,122.2,69.24v-2.29C157.51,167.39,180.57,165.78,204.92,165Z"/><path class="cls-2" d="M136.4,172v-2.29c20.72-2.24,43.32-3.84,67.18-4.68-.9-30-1.92-62.68-1.94-62.68-78.79,2.91-143.52,14.17-171.92,29.18C49.92,155.11,88.38,181.1,136.4,172Z"/><rect class="cls-3" x="109.56" y="30.18" width="66.5" height="81.88" rx="2.51"/><path class="cls-4" d="M157.15,52.33V39.7a12.63,12.63,0,1,0,12.63,12.63Z"/><path class="cls-5" d="M170.33,48.94a10.79,10.79,0,0,0-10.79-10.8v10.8Z"/><path class="cls-4" d="M138.17,43.08H117.9a.5.5,0,0,1-.5-.5.51.51,0,0,1,.5-.5h20.27a.5.5,0,0,1,.5.5A.5.5,0,0,1,138.17,43.08Z"/><path class="cls-4" d="M160.19,100H143.28a.5.5,0,0,1-.5-.5.5.5,0,0,1,.5-.5h16.91a.5.5,0,0,1,.5.5A.5.5,0,0,1,160.19,100Z"/><path class="cls-4" d="M136.08,55.48H117.9a.5.5,0,0,1,0-1h18.18a.5.5,0,0,1,0,1Z"/><path class="cls-4" d="M141.14,65.46H117.9a.51.51,0,0,1-.5-.5.5.5,0,0,1,.5-.5h23.24a.5.5,0,0,1,.5.5A.5.5,0,0,1,141.14,65.46Z"/><path class="cls-4" d="M160.19,75.53H117.9a.5.5,0,0,1-.5-.5.51.51,0,0,1,.5-.5h42.29a.5.5,0,0,1,.5.5A.5.5,0,0,1,160.19,75.53Z"/><path class="cls-4" d="M160.19,86.42H117.9a.5.5,0,0,1-.5-.5.51.51,0,0,1,.5-.5h42.29a.5.5,0,0,1,.5.5A.5.5,0,0,1,160.19,86.42Z"/><path class="cls-6" d="M74.85,157.22a1.46,1.46,0,0,1-1.08-.46,1.49,1.49,0,0,1,0-2.12l47.52-45.55a1.93,1.93,0,0,1,1.52-.52,1.9,1.9,0,0,1,1.38.82l10,14.42,37-47.47a1.92,1.92,0,0,1,3.31.5l6.25,16.65L215.86,50.3a1.5,1.5,0,1,1,2.33,1.89L181.85,96.85a1.92,1.92,0,0,1-3.28-.53l-6.23-16.61-36.69,47.11a1.91,1.91,0,0,1-1.56.73,1.88,1.88,0,0,1-1.52-.82l-10.08-14.59L75.89,156.8A1.5,1.5,0,0,1,74.85,157.22Z"/><path class="cls-6" d="M217.81,63h-.18a1.5,1.5,0,0,1-1.32-1.66l1.31-10.93L207,53.83a1.51,1.51,0,0,1-1.89-1,1.49,1.49,0,0,1,1-1.89l12.2-4A1.92,1.92,0,0,1,220.8,49l-1.51,12.61A1.49,1.49,0,0,1,217.81,63Z"/><rect class="cls-6" x="84.79" y="85.11" width="46.04" height="40.89" rx="2.76"/><path class="cls-6" d="M128.07,126.5H87.55a3.26,3.26,0,0,1-3.26-3.26V87.87a3.26,3.26,0,0,1,3.26-3.26h40.52a3.26,3.26,0,0,1,3.26,3.26v35.37A3.26,3.26,0,0,1,128.07,126.5ZM87.55,85.61a2.26,2.26,0,0,0-2.26,2.26v35.37a2.26,2.26,0,0,0,2.26,2.26h40.52a2.26,2.26,0,0,0,2.26-2.26V87.87a2.26,2.26,0,0,0-2.26-2.26Z"/><rect class="cls-4" x="93.32" y="94.08" width="29.36" height="20.79" rx="1.51"/><path class="cls-6" d="M93.32,116.1a.5.5,0,0,1-.32-.88l14.3-12a.51.51,0,0,1,.64,0l14.67,11.83a.51.51,0,0,1,.08.71.49.49,0,0,1-.7.07l-14.36-11.57-14,11.7A.49.49,0,0,1,93.32,116.1Z"/><path class="cls-4" d="M93.32,94.54l11,8.79a5.53,5.53,0,0,0,6.91,0l11-8.88"/><path class="cls-6" d="M107.79,105a6,6,0,0,1-3.75-1.32L93,94.94a.5.5,0,0,1,.62-.79l11,8.78a5,5,0,0,0,6.28,0L122,94a.49.49,0,0,1,.7.07.51.51,0,0,1-.08.71l-11,8.88A6,6,0,0,1,107.79,105Z"/><path class="cls-1" d="M469.78,102.73c0-19.83-59.64-36.8-144-43.69-.35,0-.54,79.3-.52,103.22,24.78,2,47.44,4.88,67.11,8.44C439.46,158.85,469.78,116.75,469.78,102.73Z"/><path class="cls-2" d="M451.56,134.54c-23.82-11.49-69.24-20.64-125.75-25.25-.2,0-.35,26.16-.43,53,24.74,2,47.37,4.87,67,8.43C417.63,164.34,438,149.3,451.56,134.54Z"/><rect class="cls-3" x="354.01" y="90.83" width="40.85" height="40.85" rx="2.51"/><path class="cls-4" d="M376.06,123a1,1,0,0,1-1-1V110.43H363.46a1,1,0,0,1-.95-1A13.1,13.1,0,1,1,376.09,123Zm-.47-13.59h.5V122a12.2,12.2,0,0,0,8.66-4.22,12.09,12.09,0,1,0-21.24-8.33Z"/><path class="cls-5" d="M372.67,126.37h0a14.13,14.13,0,0,1-13.47-13.47h0a1,1,0,0,1,.29-.75,1,1,0,0,1,.76-.33h12.45a1,1,0,0,1,1,1v12.46a1.06,1.06,0,0,1-.33.76A1,1,0,0,1,372.67,126.37Zm-12.46-13.55,0,0a13.13,13.13,0,0,0,12.51,12.51l0-12.51Z"/><rect class="cls-6" x="389.19" y="41.64" width="62.93" height="57.66" rx="2.76"/><path class="cls-6" d="M449.36,99.8H392a3.26,3.26,0,0,1-3.26-3.26V44.4A3.26,3.26,0,0,1,392,41.14h57.41a3.26,3.26,0,0,1,3.26,3.26V96.54A3.26,3.26,0,0,1,449.36,99.8ZM392,42.14a2.26,2.26,0,0,0-2.26,2.26V96.54A2.26,2.26,0,0,0,392,98.8h57.41a2.26,2.26,0,0,0,2.26-2.26V44.4a2.26,2.26,0,0,0-2.26-2.26Z"/><circle class="cls-4" cx="420.66" cy="70.47" r="18.41"/><path class="cls-6" d="M427,71h-6.83V60.21a.5.5,0,0,1,.5-.5.5.5,0,0,1,.5.5V70H427a.5.5,0,0,1,.5.5A.51.51,0,0,1,427,71Z"/><circle class="cls-5" cx="332.73" cy="108.19" r="12.87"/><path class="cls-3" d="M332.47,111.83a1.21,1.21,0,0,1-.86-.36L327,106.88a.5.5,0,0,1,0-.71.51.51,0,0,1,.71,0l4.59,4.59a.21.21,0,0,0,.31,0l12-12a.5.5,0,0,1,.7,0,.5.5,0,0,1,0,.71l-12,12A1.22,1.22,0,0,1,332.47,111.83Z"/><path class="cls-5" d="M336.26,38.37a3.54,3.54,0,0,0-3.53,3.53V66a3.54,3.54,0,0,0,3.53,3.53h6.44a5,5,0,0,1,5,5v5.73a1.72,1.72,0,0,0,2.93,1.21L361.16,71a5.07,5.07,0,0,1,3.56-1.47h12.92A3.53,3.53,0,0,0,381.17,66V41.9a3.54,3.54,0,0,0-3.53-3.53Z"/><path class="cls-3" d="M346.15,58.34A3.39,3.39,0,1,1,349.53,55,3.39,3.39,0,0,1,346.15,58.34Zm0-5.78A2.39,2.39,0,1,0,348.53,55,2.39,2.39,0,0,0,346.15,52.56Z"/><path class="cls-3" d="M356.9,58.34A3.39,3.39,0,1,1,360.28,55,3.39,3.39,0,0,1,356.9,58.34Zm0-5.78A2.39,2.39,0,1,0,359.28,55,2.39,2.39,0,0,0,356.9,52.56Z"/><path class="cls-3" d="M367.52,58.34A3.39,3.39,0,1,1,370.91,55,3.39,3.39,0,0,1,367.52,58.34Zm0-5.78A2.39,2.39,0,1,0,369.91,55,2.39,2.39,0,0,0,367.52,52.56Z"/><path class="cls-5" d="M58.56,61.38a2.05,2.05,0,0,0-2.05,2v14a2,2,0,0,0,2.05,2h7.49a3,3,0,0,1,2.06.86l6.09,6.09a1,1,0,0,0,1.7-.71V82.38a2.92,2.92,0,0,1,2.92-2.92h3.73a2,2,0,0,0,2-2v-14a2.05,2.05,0,0,0-2-2Z"/><path class="cls-3" d="M76.82,73.17A2.18,2.18,0,1,1,79,71,2.19,2.19,0,0,1,76.82,73.17Zm0-3.35A1.18,1.18,0,1,0,78,71,1.18,1.18,0,0,0,76.82,69.82Z"/><path class="cls-3" d="M70.59,73.17A2.18,2.18,0,1,1,72.76,71,2.19,2.19,0,0,1,70.59,73.17Zm0-3.35A1.18,1.18,0,1,0,71.76,71,1.18,1.18,0,0,0,70.59,69.82Z"/><path class="cls-3" d="M64.42,73.17A2.18,2.18,0,1,1,66.6,71,2.18,2.18,0,0,1,64.42,73.17Zm0-3.35A1.18,1.18,0,1,0,65.6,71,1.17,1.17,0,0,0,64.42,69.82Z"/><path class="cls-5" d="M209.17,9.61a2.8,2.8,0,1,1-2.79-2.79A2.79,2.79,0,0,1,209.17,9.61Z"/><circle class="cls-5" cx="13.63" cy="277.65" r="2.8"/><path class="cls-5" d="M407.16,286.71a2.8,2.8,0,1,1-2.79-2.8A2.8,2.8,0,0,1,407.16,286.71Z"/><path class="cls-5" d="M472.57,15.2a2.8,2.8,0,1,1-2.79-2.79A2.79,2.79,0,0,1,472.57,15.2Z"/><path class="cls-6" d="M485.24,83.44a1.4,1.4,0,1,1-1.4-1.4A1.39,1.39,0,0,1,485.24,83.44Z"/><path class="cls-6" d="M483.84,85.33a1.9,1.9,0,1,1,1.9-1.89A1.89,1.89,0,0,1,483.84,85.33Zm0-2.79a.9.9,0,1,0,.9.9A.89.89,0,0,0,483.84,82.54Z"/><path class="cls-6" d="M96.64,288.11a1.4,1.4,0,1,1-1.39-1.4A1.4,1.4,0,0,1,96.64,288.11Z"/><path class="cls-6" d="M95.25,290a1.9,1.9,0,1,1,1.89-1.9A1.91,1.91,0,0,1,95.25,290Zm0-2.8a.9.9,0,1,0,.89.9A.9.9,0,0,0,95.25,287.21Z"/><circle class="cls-6" cx="3.87" cy="44.15" r="2.47"/><path class="cls-6" d="M3.87,47.12a3,3,0,1,1,3-3A3,3,0,0,1,3.87,47.12Zm0-4.94a2,2,0,1,0,2,2A2,2,0,0,0,3.87,42.18Z"/><path class="cls-6" d="M124.14.5a1,1,0,1,1-1,1A1,1,0,0,1,124.14.5Z"/><path class="cls-6" d="M124.14,2.92a1.46,1.46,0,1,1,1.46-1.46A1.46,1.46,0,0,1,124.14,2.92Zm0-1.92a.46.46,0,1,0,.46.46A.47.47,0,0,0,124.14,1Z"/><path class="cls-3" d="M86,37a1.4,1.4,0,1,1-1.39-1.4A1.39,1.39,0,0,1,86,37Z"/><path class="cls-3" d="M2.8,163.12a1.4,1.4,0,1,1-1.4-1.4A1.4,1.4,0,0,1,2.8,163.12Z"/><path class="cls-3" d="M366,3a1.4,1.4,0,1,1-1.39-1.4A1.4,1.4,0,0,1,366,3Z"/><path class="cls-3" d="M486.64,254.74a1.4,1.4,0,1,1-1.4-1.4A1.4,1.4,0,0,1,486.64,254.74Z"/><path class="cls-3" d="M356.31,464.91c1.5-22.61-5.89-45-21.05-63.82L327.08,391l-7.8-9.68-5.6-6.95-55.46,3.31-55.45-3.31-5.6,6.95L189.36,391l-8.17,10.13a94.25,94.25,0,0,0-20.34,45.58c-.1.74-1.36,14.75-3.11,31.86H355.92Z"/><path class="cls-4" d="M184.77,479.53h-.1a1,1,0,0,1-.89-1.1c1.12-11.06,2-20.75,2.59-26.54.34-3.62.48-5.09.52-5.36a95.7,95.7,0,0,1,20.55-46.06,1,1,0,0,1,1.56,1.25,93.63,93.63,0,0,0-20.13,45.09c0,.24-.23,2.35-.51,5.26-.55,5.8-1.46,15.5-2.59,26.57A1,1,0,0,1,184.77,479.53Z"/><path class="cls-3" d="M329.14,168.29a41.26,41.26,0,0,0-13.66-24.85c-1.68-1.75-3.27-3.33-4.74-4.73-5.09-4.84-12.05-9.68-12.4-16.31C297.12,99.55,261.48,82.1,250,92.06c-.31.27-10.12-4.84-23.73-2a22.2,22.2,0,1,0-31.74,25.75c-.33,1-.65,2-1,3-4.36,11.93-11.52,20.58-22.08,29.72L170,149.76c-19.49,16.86-17.92,45.15-3,57.48l4.31,3.6c.66.55,1.35,1.08,2.05,1.59a8,8,0,0,1,3.53,7.5,38.55,38.55,0,0,0,1.55,16.6c6.68,20.85,30.44,34.48,56.12,32,17.81-1.7,32.85-10.34,41.9-22.24,10.81-14.22,24-27.07,37.58-39.49C325.18,196.67,331.22,182.7,329.14,168.29Z"/><path class="cls-7" d="M299.2,177.52l-3.6-39.72L278,137.49l-.71-13-5.35,12.35L256.39,135l-3.57-6.15a4,4,0,0,0-3.87-2c-1.22,14.27-8,26.76-14.87,27.87l-9.3-2v-.18l-2.93.07a14,14,0,0,0-13.68,14.3v.32a14,14,0,0,0,14.3,13.67l5.71-.12-2,51.3c-.07,13.83,12.33,21.79,25.19,21.86h.53c12.86.07,23.45-11.19,23.53-25l.1-18A31.45,31.45,0,0,0,299.2,177.52Z"/><path class="cls-8" d="M220.67,171.59a1,1,0,0,1-.54-1.85l3.62-2.29-4-4.61a1,1,0,0,1,.09-1.42,1,1,0,0,1,1.41.1L226,167a1,1,0,0,1,.23.8,1,1,0,0,1-.45.7l-4.6,2.92A1,1,0,0,1,220.67,171.59Z"/><path class="cls-8" d="M275.48,211.24s-27.46,1.14-32-8.66h0s-1.33,14.9,31.71,22.86Z"/><path class="cls-4" d="M220,187.76l-.54,0a7.24,7.24,0,1,1,.54,0Zm0-10.5a3.24,3.24,0,0,0-3.24,3,3.25,3.25,0,0,0,3,3.48,3.25,3.25,0,0,0,.48-6.48Z"/><path class="cls-3" d="M294.34,157.1a2.71,2.71,0,1,1-2.64-2.78A2.71,2.71,0,0,1,294.34,157.1Z"/><path class="cls-3" d="M265.67,157.1a2.71,2.71,0,1,1-2.64-2.78A2.71,2.71,0,0,1,265.67,157.1Z"/><path class="cls-9" d="M260,171.43c-7.12,0-12.94-6.68-13-14.94,0-4.9,6.47-7.14,12.92-7.18s13,2.11,13,7h0c.05,8.28-5.72,15.06-12.86,15.1Zm.11-19.12h-.16c-5.59,0-9.95,1.87-9.94,4.16,0,6.61,4.52,12,10,12H260c5.49,0,9.92-5.45,9.88-12.08h0C269.87,154.07,265.57,152.31,260.06,152.31Z"/><path class="cls-9" d="M291.5,170.82a12.07,12.07,0,0,1-9.2-4.44,16.2,16.2,0,0,1-3.78-10.5c0-4.91,6.46-7.14,12.91-7.18a21.94,21.94,0,0,1,8.49,1.47c2.9,1.24,4.5,3.21,4.52,5.54a16.27,16.27,0,0,1-3.65,10.56,12.08,12.08,0,0,1-9.22,4.55Zm.12-19.12h-.17c-5.58,0-9.95,1.86-9.93,4.16a13.22,13.22,0,0,0,3.05,8.57,8.77,8.77,0,0,0,13.92-.09,13.24,13.24,0,0,0,2.95-8.61C301.42,153.46,297.12,151.7,291.62,151.7Z"/><path class="cls-7" d="M275.17,152.33l.17,9a2,2,0,0,0,2.05,2l2,0a2.72,2.72,0,0,1,2.78,2.68h0a6.76,6.76,0,0,1-6.63,6.9l-3.13.06"/><path class="cls-8" d="M272.41,173.9a1,1,0,0,1,0-2l3.13-.07a5.77,5.77,0,0,0,5.65-5.88,1.66,1.66,0,0,0-.53-1.22,1.7,1.7,0,0,0-1.23-.48l-2,0a3,3,0,0,1-3.07-2.95l-.17-9a1,1,0,0,1,1-1h0a1,1,0,0,1,1,1l.17,9a1,1,0,0,0,.31.7,1,1,0,0,0,.72.29l2,0a3.72,3.72,0,0,1,2.66,1,3.66,3.66,0,0,1,1.14,2.62,7.75,7.75,0,0,1-7.61,7.92l-3.13.07Z"/><path class="cls-9" d="M248.34,159.14a1.61,1.61,0,0,1-.43-.07l-21-6.39a1.5,1.5,0,1,1,.88-2.87l21,6.39a1.5,1.5,0,0,1-.44,2.94Z"/><path class="cls-9" d="M271.24,160.05a1.5,1.5,0,0,1-.87-2.72c2-1.4,6.71-3.2,10.71,0a1.5,1.5,0,0,1-1.87,2.35c-3.21-2.57-6.95,0-7.11.1A1.45,1.45,0,0,1,271.24,160.05Z"/><path class="cls-8" d="M277.57,197.25a.56.56,0,0,1-.38,0,4.78,4.78,0,0,0-5.3,1.07.57.57,0,1,1-.84-.76c2.73-3,6.56-1.36,6.59-1.35a.56.56,0,0,1,.29.74A.52.52,0,0,1,277.57,197.25Z"/><path class="cls-3" d="M253.24,146.55a8.93,8.93,0,0,0,3.56-.48c1.23-.34,2.47-.65,3.56-.88s2.36-.45,3.62-.63a8.68,8.68,0,0,0,3.44-1c.85-.59,1-1.81-.41-3s-4.36-2-8-1.3-6,2.81-6.7,4.38S252.21,146.35,253.24,146.55Z"/><path class="cls-3" d="M298.12,146.09a7,7,0,0,1-2.81-.27c-1-.23-2-.43-2.83-.58s-1.86-.28-2.86-.38a6.78,6.78,0,0,1-2.74-.68c-.69-.44-.84-1.39.23-2.35a7.81,7.81,0,0,1,6.24-1.26c2.86.49,4.79,2,5.4,3.23S298.93,145.9,298.12,146.09Z"/><path class="cls-8" d="M272.13,184.21h-.07l-7.8-.48a5.67,5.67,0,0,1-5.31-5.68V177a1,1,0,0,1,1-1h0a1,1,0,0,1,1,1v1.06a3.66,3.66,0,0,0,3.43,3.67l7.81.48a1,1,0,0,1-.06,2Z"/><path class="cls-7" d="M227,275.37l56.23-.33.34-.87,17.13-43.05a.54.54,0,0,1,.48-.32l-91.92,0,17.26,43.39Z"/><path class="cls-10" d="M297.34,235.93l-18.84,9.21a34.33,34.33,0,0,0-14.1,12.79l-6.76,10.93,2.24,2.08,6.69-10.84a34.2,34.2,0,0,1,14.11-12.78l16.85-8.24,1.53-3.86A18.31,18.31,0,0,0,297.34,235.93Z"/><path class="cls-5" d="M252,338.13a3.24,3.24,0,0,0,6.15,0L283.22,275l-56.23.33Z"/><path class="cls-6" d="M386.19,306.94l-45.63-53.26c-13.14-15-19.42-22.42-39-22.88h-.37a.54.54,0,0,0-.48.32l-17.13,43.05-.34.87-25.11,63.09a3.24,3.24,0,0,1-6.15,0l-25-62.76-.48-1.2-17.26-43.39h-.61c-17.76.31-38.22,7.64-53.8,19.48A54,54,0,0,0,134.22,300,54.62,54.62,0,0,0,137,311.38l1,2.84q5,14.29,11.28,28.1c1.51,3.33,2.71,6,2.73,6l11.08,2a.53.53,0,0,0,.78,0l29.4,37.23a.53.53,0,0,0,.34.49l23,8.47a120.48,120.48,0,0,0,76.78,0L322,385.36a.54.54,0,0,0,.32-.62s24.43-34.2,24.64-34.43l39.21-42.67A.53.53,0,0,0,386.19,306.94Z"/><path class="cls-6" d="M254.06,403.27a114.81,114.81,0,0,1-37.58-6.3l-23-8.49a1,1,0,0,1-.65-.75l-29-36.78a1.07,1.07,0,0,1-.25,0,1,1,0,0,1-.63-.2l-10.95-2a.51.51,0,0,1-.28-.15c-.08-.08-.08-.09-2.82-6.12-4.16-9.17-8-18.64-11.3-28.13l-1-2.84a54.25,54.25,0,0,1,18-61.68c15.48-11.76,36.21-19.27,54.09-19.58l.13.5v-.5h.48a.48.48,0,0,1,.48.32L252.43,338a2.75,2.75,0,0,0,5.22,0l42.58-107a1,1,0,0,1,.85-.64h.42c19.61.46,26.07,7.82,38.93,22.47l.51.58,45.63,53.27h0a1,1,0,0,1,0,1.36l-39.2,42.67c-.37.47-16.12,22.51-24.5,34.23a1,1,0,0,1-.65.94L293.61,397A114.51,114.51,0,0,1,255,403.27Zm1-1A113.57,113.57,0,0,0,293.26,396l28.57-11.13a.54.54,0,0,1,.09-.44c5.74-8,24.47-34.24,24.68-34.48l39.21-42.67.38-.36-.38.33-46.13-53.84c-12.67-14.44-19-21.68-38.16-22.13h-.31l-17.53,43.93-25.1,63.09a3.75,3.75,0,0,1-7.08,0l-42.59-107h-.26c-17.68.31-38.18,7.73-53.51,19.38a53.64,53.64,0,0,0-20.43,49.26,54.24,54.24,0,0,0,2.77,11.28l1,2.85c3.33,9.46,7.12,18.9,11.27,28.05,1.75,3.88,2.39,5.28,2.61,5.74l10.83,2a.53.53,0,0,1,.28.16.5.5,0,0,1,.4-.18.51.51,0,0,1,.4.19l29.4,37.23a.46.46,0,0,1,.11.3l23,8.5A113.29,113.29,0,0,0,255,402.27Z"/><rect class="cls-11" x="243.8" y="296.03" width="76.03" height="97.2" rx="6.99"/><rect class="cls-4" x="267.35" y="288.48" width="28.94" height="8.58" rx="3.02"/><path class="cls-11" d="M293.27,297.56h-22.9a3.53,3.53,0,0,1-3.52-3.53V291.5a3.53,3.53,0,0,1,3.52-3.52h22.9a3.53,3.53,0,0,1,3.52,3.52V294A3.53,3.53,0,0,1,293.27,297.56ZM270.37,289a2.52,2.52,0,0,0-2.52,2.52V294a2.52,2.52,0,0,0,2.52,2.53h22.9a2.52,2.52,0,0,0,2.52-2.53V291.5a2.52,2.52,0,0,0-2.52-2.52Z"/><rect class="cls-4" x="262.3" y="296.16" width="39.04" height="4.02" rx="0.96"/><path class="cls-11" d="M300.38,300.69H263.26a1.46,1.46,0,0,1-1.46-1.46v-2.1a1.46,1.46,0,0,1,1.46-1.47h37.12a1.47,1.47,0,0,1,1.46,1.47v2.1A1.47,1.47,0,0,1,300.38,300.69Zm-37.12-4a.47.47,0,0,0-.46.47v2.1a.47.47,0,0,0,.46.46h37.12a.47.47,0,0,0,.46-.46v-2.1a.47.47,0,0,0-.46-.47Z"/><path class="cls-12" d="M266,359.89c.55-.16,1.06-.3,1.52-.39C267.06,359.63,266.54,359.76,266,359.89Z"/><path class="cls-7" d="M260.81,356.07c1,3.82,4.46,3.64,7.88,2.77-2,.86-3.55,2.23-2.81,4.76.8,4.67,5.24,4.86,9,3.82-3.21,2,.87,6.93,5.83,6.86,7,.26,13.87.48,20.84.87,4.92.28,9.57,0,13.92-2.35l5.3.22-1.12-36.68-8.7,1.61c-1-.7-2.07-1.37-3.13-2,0,0-18.43-8.26-25.14-9.85a6.54,6.54,0,0,0-2.19-.25,2.37,2.37,0,0,0-1.84,1.08,3.18,3.18,0,0,0,.17,2.78c1.18,2.74,2.23,5.12,3.29,7.21-2.6.13-3.32.16-6.36.25-6.41.67-17.11.48-15.75,8.81.72,2.85,3.05,3.3,5.46,3C262.13,350.1,259.17,352.07,260.81,356.07Zm5.17,3.82c.55-.16,1.06-.3,1.52-.39C267.06,359.63,266.54,359.76,266,359.89Z"/><path class="cls-13" d="M282.07,337l16.71.39s-16-4.66-18.65-4.51Z"/><rect class="cls-14" x="317.62" y="330.72" width="13.42" height="48.87" rx="2.47" transform="translate(647.9 711) rotate(-179.88)"/><path class="cls-6" d="M325.51,330.76V380.2a4.07,4.07,0,0,0,4.78,4l39.55-7c30.42-6,42.18-43.26,20.73-65.64l-3.81-4-57.07,17.52A5.91,5.91,0,0,0,325.51,330.76Z"/><path class="cls-14" d="M335.87,372.86a2.68,2.68,0,1,1-3.6-1.22A2.69,2.69,0,0,1,335.87,372.86Z"/><path class="cls-6" d="M329.58,384.77A4.58,4.58,0,0,1,325,380.2V330.76a6.37,6.37,0,0,1,4.53-6.13l57.07-17.52a.49.49,0,0,1,.51.13l3.81,4a39.73,39.73,0,0,1-21,66.48l-39.57,7A5.27,5.27,0,0,1,329.58,384.77Zm57-76.62-56.77,17.43a5.39,5.39,0,0,0-3.83,5.18V380.2a3.57,3.57,0,0,0,4.19,3.51l39.56-7a38.74,38.74,0,0,0,20.45-64.81Z"/><line class="cls-15" x1="275.04" y1="347.55" x2="264.8" y2="349.05"/><path class="cls-16" d="M264.8,349.55a.5.5,0,0,1-.07-1l10.24-1.5a.51.51,0,0,1,.57.43.5.5,0,0,1-.42.56l-10.25,1.5Z"/><line class="cls-15" x1="277.09" y1="356.88" x2="268.69" y2="358.84"/><path class="cls-16" d="M268.69,359.34a.5.5,0,0,1-.11-1l8.39-2a.5.5,0,0,1,.23,1l-8.4,2Z"/><line class="cls-15" x1="282.45" y1="365.56" x2="274.39" y2="367.77"/><path class="cls-16" d="M274.39,368.27a.5.5,0,0,1-.48-.37.48.48,0,0,1,.35-.61l8.06-2.21a.5.5,0,0,1,.26,1l-8.06,2.2Z"/><path class="cls-3" d="M325.51,339.24a.5.5,0,0,1-.5-.5v-7.48a7.57,7.57,0,0,1,5.58-7.29l32.79-8.85a.5.5,0,1,1,.26,1l-32.79,8.86a6.56,6.56,0,0,0-4.84,6.32v7.48A.5.5,0,0,1,325.51,339.24Z"/><path class="cls-3" d="M336.15,323.49a.5.5,0,0,1-.43-.25L323.4,302.41a.49.49,0,0,1,.18-.68.51.51,0,0,1,.69.17l12.31,20.84a.5.5,0,0,1-.18.68A.47.47,0,0,1,336.15,323.49Z"/><path class="cls-7" d="M255.9,277.38l10.67-17.28a34.2,34.2,0,0,1,14.11-12.78l18.84-9.21a15.52,15.52,0,0,1,8.72-1.47l36.3-2.06a1.17,1.17,0,0,1,1.15,1.65l0,.07a6.58,6.58,0,0,1-5.26,3.89l-17.06,2.09.84.08a6,6,0,0,1,5.06,3.9l1.41,3.85,1.19,1.27a6.14,6.14,0,0,1,1.25,6.48l-8.47,21.5a2.42,2.42,0,0,1-3.31,1.29h0a6.91,6.91,0,0,1-3.54-8.44l2.42-7.19L308.5,279.38a19.17,19.17,0,0,1-7.16,5.45l-9,4L286,306.58Z"/><line class="cls-15" x1="310.81" y1="243.26" x2="323.23" y2="242.72"/><path class="cls-8" d="M323.5,243.26a.54.54,0,0,1-.25.06l-12.41.55a.61.61,0,0,1,0-1.22l12.41-.54a.59.59,0,0,1,.63.58A.61.61,0,0,1,323.5,243.26Z"/><line class="cls-15" x1="315.07" y1="251.73" x2="330.17" y2="250.16"/><path class="cls-8" d="M330.44,250.71a.65.65,0,0,1-.21.06l-15.09,1.57a.61.61,0,0,1-.67-.54.6.6,0,0,1,.54-.67l15.1-1.57a.6.6,0,0,1,.66.54A.61.61,0,0,1,330.44,250.71Z"/><line class="cls-15" x1="321.83" y1="260.89" x2="320.19" y2="265.02"/><path class="cls-8" d="M320.46,265.57a.6.6,0,0,1-.49,0,.6.6,0,0,1-.34-.79l1.63-4.13a.61.61,0,1,1,1.13.44l-1.63,4.14A.67.67,0,0,1,320.46,265.57Z"/><rect class="cls-14" x="263.87" y="265.33" width="14.11" height="51.41" rx="2.47" transform="translate(-126.69 290.75) rotate(-47.01)"/><path class="cls-6" d="M155.79,356.5c1.76,3.34,4.31,7.76,7.2,12.61a38.69,38.69,0,0,0,58.32,9.71c8.28-7,17.17-14.83,25.84-22.56,18-16.09,35.13-31.88,43.93-39.81a4.38,4.38,0,0,0,.05-6.46l-38.7-35.9a3.26,3.26,0,0,0-4.36-.06l-47,41-57.33,11.2S150.79,347.05,155.79,356.5Z"/><path class="cls-6" d="M196.22,388.53a39.13,39.13,0,0,1-33.66-19.17c-3.16-5.29-5.58-9.54-7.21-12.63h0c-5-9.38-12-30.14-12.07-30.35a.49.49,0,0,1,0-.41.47.47,0,0,1,.34-.24l57.19-11.18,46.9-40.9a3.73,3.73,0,0,1,5,.08l38.7,35.9a4.86,4.86,0,0,1-.06,7.19c-3,2.73-7,6.38-11.7,10.65-9.09,8.29-20.39,18.6-32.23,29.16-9.89,8.82-18.34,16.21-25.85,22.57a38.73,38.73,0,0,1-16.38,8.29A39.93,39.93,0,0,1,196.22,388.53ZM144.41,326.6c1.15,3.33,7.35,21.2,11.82,29.67h0c1.62,3.07,4,7.3,7.19,12.58A38.14,38.14,0,0,0,205,386.51a37.62,37.62,0,0,0,16-8.07c7.51-6.36,16-13.74,25.84-22.55C258.65,345.33,270,335,279,326.73c4.69-4.27,8.69-7.92,11.71-10.65a3.9,3.9,0,0,0,1.29-2.85,3.86,3.86,0,0,0-1.24-2.87l-38.7-35.9a2.76,2.76,0,0,0-3.69-.06l-47,41a.55.55,0,0,1-.24.12Z"/><path class="cls-3" d="M194.32,388.26c-.91,0-1.83,0-2.74-.07a.5.5,0,0,1-.47-.53.47.47,0,0,1,.52-.47,50.63,50.63,0,0,0,37-13.43L243.46,360a.5.5,0,0,1,.71,0,.48.48,0,0,1,0,.7l-14.8,13.79A51.59,51.59,0,0,1,194.32,388.26Z"/><path class="cls-3" d="M181.86,330.09a.52.52,0,0,1-.38-.17.51.51,0,0,1,.06-.71l50.39-42.88a.51.51,0,0,1,.71.06.49.49,0,0,1-.06.7L182.19,330A.52.52,0,0,1,181.86,330.09Z"/><path class="cls-3" d="M195.25,318.7a.5.5,0,0,1-.43-.25L175,284.16a.5.5,0,1,1,.86-.5L195.68,318a.49.49,0,0,1-.18.68A.45.45,0,0,1,195.25,318.7Z"/><path class="cls-14" d="M280.25,311.73a2.69,2.69,0,1,1-3.6-1.22A2.68,2.68,0,0,1,280.25,311.73Z"/><path class="cls-5" d="M14.2,102.73V220.65c0,18.08,49.56,33.77,122.2,41.62V144.36C63.76,136.51,14.2,120.82,14.2,102.73Z"/><path class="cls-4" d="M123.65,169.46h-.05C63.67,163,26.45,150.17,26.45,136a.5.5,0,0,1,1,0c0,13.39,37.78,26.12,96.26,32.45a.5.5,0,0,1,.44.55A.51.51,0,0,1,123.65,169.46Z"/><path class="cls-4" d="M72.23,180.6h-.12A183.53,183.53,0,0,1,48,173.46a.5.5,0,1,1,.36-.93,185.13,185.13,0,0,0,24,7.09.49.49,0,0,1,.37.6A.48.48,0,0,1,72.23,180.6Z"/><path class="cls-3" d="M123.65,188.91h-.05c-12.79-1.38-24.78-3.08-35.64-5.06a.5.5,0,1,1,.17-1c10.84,2,22.81,3.67,35.58,5a.5.5,0,0,1,.44.55A.51.51,0,0,1,123.65,188.91Z"/><polygon class="cls-3" points="29.72 219.78 43.52 224.2 43.52 204.52 29.72 199.22 29.72 219.78"/><path class="cls-4" d="M44,224.88l-14.8-4.74V186.45L44,192.14Zm-13.8-5.47,12.8,4.1V192.82l-12.8-4.92Z"/><path class="cls-4" d="M63.91,231l-14.8-4.74v-18.7l14.8,5.69Zm-13.8-5.47,12.8,4.1V214l-12.8-4.92Z"/><path class="cls-5" d="M469.78,102.73V220.65c0,14.93-33.83,28.24-86.55,36.85-1.49.24-1.78-117.63-.51-117.83C435.73,131.07,469.78,117.72,469.78,102.73Z"/><path class="cls-3" d="M433.07,151.94a.49.49,0,0,1-.48-.38A.5.5,0,0,1,433,151c12.52-3,21.91-6.36,27.9-10.06a.49.49,0,0,1,.69.16.51.51,0,0,1-.16.69c-6.08,3.76-15.57,7.19-28.2,10.19Z"/><path class="cls-4" d="M433.79,168.05a.5.5,0,0,1-.49-.38.52.52,0,0,1,.37-.61c12.21-2.9,21.35-6.2,27.19-9.81a.5.5,0,1,1,.53.85c-5.93,3.67-15.18,7-27.49,9.94Z"/><path class="cls-17" d="M108.15,233l-19.4-20a1.5,1.5,0,0,1,2.15-2.09l17.35,17.9L128.32,210,153,229.14a1.5,1.5,0,0,1-1.83,2.37l-22.69-17.6Z"/><path class="cls-18" d="M94.86,211.94a5,5,0,1,1-5-5A5,5,0,0,1,94.86,211.94Z"/><path class="cls-18" d="M133.45,211.94a5,5,0,1,1-5-5A5,5,0,0,1,133.45,211.94Z"/><path class="cls-19" d="M113.24,230.32a5,5,0,1,1-5-5A5,5,0,0,1,113.24,230.32Z"/><path class="cls-19" d="M157.15,230.32a5,5,0,1,1-5-5A5,5,0,0,1,157.15,230.32Z"/><rect class="cls-6" x="348.62" y="171.62" width="8.11" height="57.7"/><path class="cls-6" d="M357.23,229.82h-9.11v-58.7h9.11Zm-8.11-1h7.11v-56.7h-7.11Z"/><path class="cls-3" d="M372.71,229.82h-9.12V155.49h9.12Zm-8.12-1h7.12V156.49h-7.12Z"/><path class="cls-3" d="M404.87,229.82h-9.12V155.49h9.12Zm-8.12-1h7.12V156.49h-7.12Z"/><rect class="cls-20" x="411.28" y="144.87" width="8.11" height="84.45"/><rect class="cls-6" x="411.28" y="174.17" width="8.11" height="55.15"/><path class="cls-6" d="M419.89,229.82h-9.11V173.67h9.11Zm-8.11-1h7.11V174.67h-7.11Z"/><rect class="cls-6" x="380.63" y="177.63" width="8.11" height="51.69"/><path class="cls-6" d="M389.24,229.82h-9.11V177.13h9.11Zm-8.11-1h7.11V178.13h-7.11Z"/></g></g></svg>